# xmcd CD database file
#
# Track frame offsets:
#	150
#	18830
#	40697
#
# Disc length: 788 seconds
#
# Revision: 0
# Processed by: cddbd v1.5PL3 Copyright (c) Steve Scherf et al.
# Submitted via: CDex 1.50
#
DISCID=15031203
DTITLE=黒色餅乾 - 時機
DYEAR=1998
DGENRE=JPop
TTITLE0=時機
TTITLE1=時機 [REMIX]
TTITLE2=時機 (ｶﾗｵｹ)
EXTD=YEAR: 1998/04/22
EXTT0=
EXTT1=
EXTT2=
PLAYORDER=
